<svg width="24" height="24" viewBox="0 0 24 24" fill="none" xmlns="http://www.w3.org/2000/svg">
<path d="M12.0035 20.5L11.9995 11.5M20.2585 17.158C21.0593 16.595 21.6598 15.7913 21.9728 14.8638C22.2859 13.9363 22.2952 12.9332 21.9995 12C21.393 10.085 19.5345 9.03553 17.526 9.03753H16.3655C16.0887 7.95777 15.5705 6.95489 14.8499 6.1044C14.1294 5.25391 13.2253 4.57798 12.2056 4.12752C11.186 3.67705 10.0775 3.46378 8.96354 3.50377C7.84957 3.54376 6.75919 3.83596 5.7745 4.35838C4.78982 4.88079 3.93649 5.61981 3.27877 6.51977C2.62106 7.41973 2.17609 8.45719 1.97739 9.55402C1.77869 10.6509 1.83142 11.7785 2.13163 12.852C2.43183 13.9255 2.97168 14.9169 3.71052 15.7515" stroke="#0048AD" stroke-width="2" stroke-linecap="round" stroke-linejoin="round"/>
<path d="M15.1824 13.818L12.0004 10.636L8.81836 13.818" stroke="#0048AD" stroke-width="2" stroke-linecap="round" stroke-linejoin="round"/>
</svg>
